<?xml version="1.0" encoding="UTF-8"?>
<svg width="15px" height="17px" viewBox="0 0 15 17" version="1.1" xmlns="http://www.w3.org/2000/svg" xmlns:xlink="http://www.w3.org/1999/xlink">
    <!-- Generator: Sketch 58 (84663) - https://sketch.com -->
    <title>X</title>
    <desc>Created with Sketch.</desc>
    <g id="Page-1" stroke="none" stroke-width="1" fill="none" fill-rule="evenodd">
        <g id="mobile-home-search-flight" transform="translate(-278.000000, -21.000000)" fill="#FFFFFF" fill-rule="nonzero">
            <g id="HEADER">
                <path d="M284.336,29.288 L278.48,21.02 L279.692,21.02 C279.804001,21.02 279.886,21.0439998 279.938,21.092 C279.99,21.1400002 280.036,21.1959997 280.076,21.26 L285.236,28.7 C285.26,28.6359997 285.286,28.5740003 285.314,28.514 C285.342,28.4539997 285.376,28.3920003 285.416,28.328 L290.396,21.272 C290.444,21.2079997 290.496,21.1500003 290.552,21.098 C290.608,21.0459997 290.676,21.02 290.756,21.02 L291.932,21.02 L286.064,29.228 L292.172,38 L290.96,38 C290.847999,38 290.76,37.9660003 290.696,37.898 C290.653333,37.8526664 290.616,37.8082222 290.584,37.7646667 L285.188,29.876 C285.156,29.9960006 285.1,30.1119994 285.02,30.224 L279.764,37.7 C279.708,37.7720004 279.644,37.8399997 279.572,37.904 C279.5,37.9680003 279.416,38 279.32,38 L278.204,38 L284.336,29.288 Z" id="X"></path>
            </g>
        </g>
    </g>
</svg>