<?xml version="1.0" encoding="UTF-8"?>
<svg width="32px" height="43px" viewBox="0 0 32 43" version="1.1" xmlns="http://www.w3.org/2000/svg" xmlns:xlink="http://www.w3.org/1999/xlink">
    <!-- Generator: Sketch 58 (84663) - https://sketch.com -->
    <title>Pointer_selected@2x</title>
    <desc>Created with Sketch.</desc>
    <g id="Page-1" stroke="none" stroke-width="1" fill="none" fill-rule="evenodd">
        <g id="HP_HoverState" transform="translate(-799.000000, -482.000000)" fill="#333333" stroke="#F9CB1C">
            <g id="Map" transform="translate(490.000000, 88.000000)">
                <path d="M324.996006,436.153965 L331.674984,426.94645 C332.152942,426.287876 332.657976,425.621048 333.287471,424.811276 C333.243619,424.867686 335.055072,422.556292 335.544586,421.914444 C339.027318,417.347912 340.5,414.168347 340.5,409.983553 C340.5,401.398044 333.552495,394.5 325,394.5 C316.355673,394.5 309.5,401.348626 309.5,409.983553 C309.5,414.184634 310.950802,417.39405 314.348478,421.917363 C314.876717,422.620606 316.809893,425.113409 316.830446,425.140192 C317.343247,425.808425 317.775056,426.383765 318.180703,426.942738 L324.996006,436.153965 Z M325,402.269737 C329.21695,402.269737 332.579646,405.722288 332.579646,409.983553 C332.579646,414.220337 329.240629,417.555921 325,417.555921 C320.734855,417.555921 317.278761,414.196692 317.278761,409.983553 C317.278761,405.746769 320.759371,402.269737 325,402.269737 Z" id="Pointer_selected"></path>
            </g>
        </g>
    </g>
</svg>