<?xml version="1.0" encoding="UTF-8"?>
<svg width="36px" height="36px" viewBox="0 0 36 36" version="1.1" xmlns="http://www.w3.org/2000/svg" xmlns:xlink="http://www.w3.org/1999/xlink">
    <!-- Generator: Sketch 58 (84663) - https://sketch.com -->
    <title>Rocket@2x</title>
    <desc>Created with Sketch.</desc>
    <g id="Symbols" stroke="none" stroke-width="1" fill="none" fill-rule="evenodd">
        <g id="Card-Flight" transform="translate(-337.000000, -25.000000)" fill="#F9CB1C" fill-rule="nonzero">
            <g id="Rocket">
                <path d="M358.257509,49.4 L358.393531,49.264 L358.257509,49.4 Z M364.718591,51.76 C364.718591,52.212 365.198672,51.596 356.021134,60.776 C355.80157,60.9930949 355.473327,61.0576249 355.187899,60.9398076 C354.902472,60.8219902 354.715357,60.5447338 354.712915,60.236 L354.712915,54.32 C351.556386,55.756 351.292341,56.048 350.796258,55.552 L342.438858,47.196 C341.938774,46.696 342.266829,46.376 343.671064,43.284 L337.762074,43.284 C337.453288,43.2815577 337.175986,43.0944747 337.058149,42.8090949 C336.940311,42.5237151 337.004852,42.1955275 337.221984,41.976 C346.395521,32.8 345.79542,33.28 346.235494,33.28 L352.884608,33.28 C358.597566,27.56 365.194671,25 372.235851,25 C372.439206,25 372.634173,25.0810387 372.777591,25.2251828 C372.921008,25.3693269 373.001044,25.5646824 372.99999,25.768 C372.99999,32.824 370.427548,39.4 364.718591,45.116 L364.718591,51.76 Z M344.407188,41.76 L351.352352,34.812 L346.551547,34.812 L339.610384,41.752 L344.407188,41.76 Z M353.844769,53.04 L344.963281,44.148 L343.899103,46.488 L351.500376,54.088 L353.844769,53.04 Z M363.186335,46.64 L356.245171,53.588 L356.245171,58.388 L363.186335,51.444 L363.186335,46.64 Z M364.086486,43.572 C368.635137,39.0502817 371.273171,32.9546099 371.45572,26.544 C365.041244,26.7244857 358.941328,29.3622321 354.416865,33.912 L345.655397,42.672 L355.325017,52.34 L357.645406,50.02 L357.553391,50.112 L357.377361,50.288 L357.553391,50.112 L364.086486,43.572 Z M357.901449,49.764 L357.681412,49.984 L357.901449,49.764 Z M358.253508,49.412 L357.973461,49.692 L358.253508,49.412 Z M363.722425,39.54 C362.658431,40.6041689 361.058027,40.922663 359.667574,40.3469502 C358.27712,39.7712373 357.370486,38.4147121 357.370486,36.91 C357.370486,35.4052879 358.27712,34.0487627 359.667574,33.4730498 C361.058027,32.897337 362.658431,33.2158311 363.722425,34.28 C365.172631,35.7335622 365.172631,38.0864378 363.722425,39.54 Z M362.638243,35.36 C361.783384,34.5062241 360.398225,34.5067317 359.543992,35.3611339 C358.68976,36.2155362 358.68976,37.6004638 359.543992,38.4548661 C360.398225,39.3092683 361.783384,39.3097759 362.638243,38.456 C363.491781,37.6004252 363.491781,36.2155748 362.638243,35.36 L362.638243,35.36 Z"></path>
            </g>
        </g>
    </g>
</svg>