<?xml version="1.0" encoding="UTF-8"?>
<svg width="16px" height="16px" viewBox="0 0 16 16" version="1.1" xmlns="http://www.w3.org/2000/svg" xmlns:xlink="http://www.w3.org/1999/xlink">
    <!-- Generator: Sketch 58 (84663) - https://sketch.com -->
    <title>Search</title>
    <desc>Created with Sketch.</desc>
    <g id="Page-1" stroke="none" stroke-width="1" fill="none" fill-rule="evenodd">
        <g id="mobile-home" transform="translate(-286.000000, -20.000000)" fill="#FFFFFF" fill-rule="nonzero">
            <g id="HEADER">
                <path d="M301.869825,35.2412859 C302.043392,35.4148522 302.043392,35.6962589 301.869825,35.8698252 C301.696259,36.0433916 301.414852,36.0433916 301.241286,35.8698252 L296.455478,31.0840178 C296.36771,30.996249 296.218647,30.9895465 296.125087,31.0659483 C296.125087,31.0659483 296.052267,31.1289035 295.924339,31.2237515 C294.889806,31.9907741 293.608994,32.4444444 292.222222,32.4444444 C288.785784,32.4444444 286,29.6586607 286,26.2222222 C286,22.7857838 288.785784,20 292.222222,20 C295.658661,20 298.444444,22.7857838 298.444444,26.2222222 C298.444444,27.577397 298.011212,28.831385 297.275691,29.8532425 C297.165468,30.0063745 297.066025,30.123675 297.066025,30.123675 C296.988194,30.2191562 296.994998,30.3664591 297.084018,30.4554785 L301.869825,35.2412859 Z M292.222222,31.5555555 C295.167741,31.5555555 297.555556,29.1677409 297.555556,26.2222222 C297.555556,23.2767036 295.167741,20.8888889 292.222222,20.8888889 C289.276704,20.8888889 286.888889,23.2767036 286.888889,26.2222222 C286.888889,29.1677409 289.276704,31.5555555 292.222222,31.5555555 Z" id="Search"></path>
            </g>
        </g>
    </g>
</svg>