<?xml version="1.0" encoding="UTF-8"?>
<svg width="24px" height="24px" viewBox="0 0 24 24" version="1.1" xmlns="http://www.w3.org/2000/svg" xmlns:xlink="http://www.w3.org/1999/xlink">
    <!-- Generator: Sketch 58 (84663) - https://sketch.com -->
    <title>Smiley@2x</title>
    <desc>Created with Sketch.</desc>
    <g id="Page-1" stroke="none" stroke-width="1" fill="none" fill-rule="evenodd">
        <g id="HP_timePicker_NoresultsFound" transform="translate(-227.000000, -232.000000)" fill="#333333" fill-rule="nonzero">
            <g id="No-results-Found" transform="translate(180.000000, 232.000000)">
                <g id="Smiley" transform="translate(47.000000, 0.000000)">
                    <path d="M24,12 C24,5.372583 18.6274169,0 12,0 C5.372583,0 0,5.372583 0,12 C0,18.6274169 5.372583,24 12,24 C18.6274169,24 24,18.6274169 24,12 Z M1.09090909,12 C1.09090909,5.97507545 5.97507545,1.09090909 12,1.09090909 C18.0249245,1.09090909 22.9090909,5.97507545 22.9090909,12 C22.9090909,18.0249245 18.0249245,22.9090909 12,22.9090909 C5.97507545,22.9090909 1.09090909,18.0249245 1.09090909,12 Z" id="Shape"></path>
                    <circle id="Oval" cx="7.63636364" cy="12" r="1.09090909"></circle>
                    <circle id="Oval" cx="16.3636364" cy="12" r="1.09090909"></circle>
                    <path d="M9.41103581,18.1844748 C10.1115335,17.7287128 10.9695912,17.4545455 12,17.4545455 C13.0304088,17.4545455 13.8884664,17.7287128 14.5889642,18.1844748 C15.0012778,18.4527368 15.264577,18.7144447 15.3798547,18.8700927 C15.5591473,19.1121742 15.9007385,19.1630745 16.14282,18.9837817 C16.3849015,18.8044891 16.4358017,18.4628978 16.256509,18.2208164 C16.0688017,17.9673735 15.7147333,17.6154451 15.1838992,17.2700707 C14.312484,16.7031053 13.250053,16.3636364 12,16.3636364 C10.749947,16.3636364 9.68751604,16.7031053 8.8161008,17.2700707 C8.28526665,17.6154451 7.93119832,17.9673735 7.74349101,18.2208164 C7.56419829,18.4628978 7.61509859,18.8044891 7.85718,18.9837817 C8.09926141,19.1630745 8.44085264,19.1121742 8.62014536,18.8700927 C8.73542296,18.7144447 8.99872217,18.4527368 9.41103581,18.1844748 Z" id="Path"></path>
                </g>
            </g>
        </g>
    </g>
</svg>